<mxfile modified="2019-12-14T16:04:08.813Z" host="www.draw.io" agent="Mozilla/5.0 (Windows NT 10.0; Win64; x64; rv:71.0) Gecko/20100101 Firefox/71.0" etag="REE8L5EiaLu4G5Q1Yoxj" version="12.4.2" type="github" pages="1">
  <diagram id="Ht1M8jgEwFfnCIfOTk4-" name="Page-1">
    <mxGraphModel dx="2719" dy="1690" grid="1" gridSize="10" guides="1" tooltips="1" connect="1" arrows="1" fold="1" page="1" pageScale="1" pageWidth="1169" pageHeight="827" math="0" shadow="0">
      <root>
        <mxCell id="0"/>
        <mxCell id="1" parent="0"/>
        <mxCell id="LcDpXZuln2otAQhfpoKN-1" value="&lt;font style=&quot;font-size: 24px&quot;&gt;Produktionslinie&lt;/font&gt;" style="points=[[0,0],[0.25,0],[0.5,0],[0.75,0],[1,0],[1,0.25],[1,0.5],[1,0.75],[1,1],[0.75,1],[0.5,1],[0.25,1],[0,1],[0,0.75],[0,0.5],[0,0.25]];outlineConnect=0;gradientColor=none;html=1;whiteSpace=wrap;fontSize=12;fontStyle=0;shape=mxgraph.aws4.group;grIcon=mxgraph.aws4.group_corporate_data_center;strokeColor=#5A6C86;fillColor=none;verticalAlign=top;align=left;spacingLeft=30;fontColor=#5A6C86;dashed=0;" vertex="1" parent="1">
          <mxGeometry x="-590" y="-8" width="450" height="1020" as="geometry"/>
        </mxCell>
        <mxCell id="LcDpXZuln2otAQhfpoKN-22" value="Edge-Device Sensor" style="fillColor=none;strokeColor=#5A6C86;dashed=1;verticalAlign=top;fontStyle=0;fontColor=#5A6C86;fontSize=19;" vertex="1" parent="1">
          <mxGeometry x="20" y="194" width="390" height="396" as="geometry"/>
        </mxCell>
        <mxCell id="-QjtrjUzRDEMRZ5MF8oH-47" value="&lt;div&gt;AWS Industrial IoT - Adaptive Prozesssteuerung: Konzept (Einzelnes Sensor/Aktor System) &lt;br&gt;&lt;/div&gt;&lt;div&gt;&lt;br&gt;&lt;/div&gt;" style="text;html=1;resizable=0;points=[];autosize=1;align=left;verticalAlign=top;spacingTop=-4;fontSize=30;fontStyle=1" parent="1" vertex="1">
          <mxGeometry x="56.5" y="64.5" width="1320" height="70" as="geometry"/>
        </mxCell>
        <mxCell id="SCVMTBWpLvtzJIhz15lM-1" value="" style="line;strokeWidth=2;html=1;fontSize=14;" parent="1" vertex="1">
          <mxGeometry x="52.5" y="90" width="1060" height="59.5" as="geometry"/>
        </mxCell>
        <mxCell id="LcDpXZuln2otAQhfpoKN-4" value="&lt;div&gt;Diagonose- Parameter&lt;/div&gt;&lt;div&gt;&lt;br&gt;&lt;/div&gt;" style="text;html=1;strokeColor=none;fillColor=none;align=center;verticalAlign=middle;whiteSpace=wrap;rounded=0;" vertex="1" parent="1">
          <mxGeometry x="240" y="816.5" width="40" height="20" as="geometry"/>
        </mxCell>
        <mxCell id="LcDpXZuln2otAQhfpoKN-6" value="" style="outlineConnect=0;fontColor=#232F3E;gradientColor=#60A337;gradientDirection=north;fillColor=#277116;strokeColor=#ffffff;dashed=0;verticalLabelPosition=bottom;verticalAlign=top;align=center;html=1;fontSize=12;fontStyle=0;aspect=fixed;shape=mxgraph.aws4.resourceIcon;resIcon=mxgraph.aws4.greengrass;" vertex="1" parent="1">
          <mxGeometry x="200" y="296" width="80" height="80" as="geometry"/>
        </mxCell>
        <mxCell id="LcDpXZuln2otAQhfpoKN-9" value="&lt;div style=&quot;font-size: 13px;&quot;&gt;AWS IoT Greengrass&lt;/div&gt;&lt;div style=&quot;font-size: 13px;&quot;&gt;&lt;br style=&quot;font-size: 13px;&quot;&gt;&lt;/div&gt;" style="text;html=1;strokeColor=none;fillColor=none;align=center;verticalAlign=middle;whiteSpace=wrap;rounded=0;fontSize=13;" vertex="1" parent="1">
          <mxGeometry x="219" y="400" width="40" height="20" as="geometry"/>
        </mxCell>
        <mxCell id="LcDpXZuln2otAQhfpoKN-18" value="" style="outlineConnect=0;fontColor=#232F3E;gradientColor=none;fillColor=#277116;strokeColor=none;dashed=0;verticalLabelPosition=bottom;verticalAlign=top;align=center;html=1;fontSize=12;fontStyle=0;aspect=fixed;pointerEvents=1;shape=mxgraph.aws4.sensor;" vertex="1" parent="1">
          <mxGeometry x="259" y="600" width="72" height="78" as="geometry"/>
        </mxCell>
        <mxCell id="LcDpXZuln2otAQhfpoKN-19" value="" style="outlineConnect=0;fontColor=#232F3E;gradientColor=none;fillColor=#277116;strokeColor=none;dashed=0;verticalLabelPosition=bottom;verticalAlign=top;align=center;html=1;fontSize=12;fontStyle=0;aspect=fixed;pointerEvents=1;shape=mxgraph.aws4.shadow;" vertex="1" parent="1">
          <mxGeometry x="320" y="297.5" width="78" height="77" as="geometry"/>
        </mxCell>
        <mxCell id="LcDpXZuln2otAQhfpoKN-20" value="" style="outlineConnect=0;fontColor=#232F3E;gradientColor=none;fillColor=#277116;strokeColor=none;dashed=0;verticalLabelPosition=bottom;verticalAlign=top;align=center;html=1;fontSize=12;fontStyle=0;aspect=fixed;pointerEvents=1;shape=mxgraph.aws4.hardware_board;" vertex="1" parent="1">
          <mxGeometry x="30" y="419" width="78" height="78" as="geometry"/>
        </mxCell>
        <mxCell id="LcDpXZuln2otAQhfpoKN-24" value="GerÃ¤te-Schatten" style="text;html=1;strokeColor=none;fillColor=none;align=center;verticalAlign=middle;whiteSpace=wrap;rounded=0;fontSize=14;" vertex="1" parent="1">
          <mxGeometry x="339" y="390" width="40" height="20" as="geometry"/>
        </mxCell>
        <mxCell id="LcDpXZuln2otAQhfpoKN-26" value="" style="outlineConnect=0;fontColor=#232F3E;gradientColor=none;fillColor=#277116;strokeColor=none;dashed=0;verticalLabelPosition=bottom;verticalAlign=top;align=center;html=1;fontSize=12;fontStyle=0;aspect=fixed;pointerEvents=1;shape=mxgraph.aws4.mqtt_protocol;" vertex="1" parent="1">
          <mxGeometry x="460" y="300.5" width="78" height="78" as="geometry"/>
        </mxCell>
        <mxCell id="LcDpXZuln2otAQhfpoKN-28" value="" style="outlineConnect=0;fontColor=#232F3E;gradientColor=none;fillColor=#277116;strokeColor=none;dashed=0;verticalLabelPosition=bottom;verticalAlign=top;align=center;html=1;fontSize=12;fontStyle=0;aspect=fixed;pointerEvents=1;shape=mxgraph.aws4.lambda_function;" vertex="1" parent="1">
          <mxGeometry x="30" y="300.5" width="78" height="78" as="geometry"/>
        </mxCell>
        <mxCell id="LcDpXZuln2otAQhfpoKN-29" value="" style="edgeStyle=orthogonalEdgeStyle;html=1;endArrow=none;elbow=vertical;startArrow=block;startFill=1;strokeColor=#545B64;rounded=0;fontSize=14;" edge="1" parent="1" source="LcDpXZuln2otAQhfpoKN-28" target="LcDpXZuln2otAQhfpoKN-20">
          <mxGeometry width="100" relative="1" as="geometry">
            <mxPoint x="40" y="396" as="sourcePoint"/>
            <mxPoint x="140" y="396" as="targetPoint"/>
          </mxGeometry>
        </mxCell>
        <mxCell id="LcDpXZuln2otAQhfpoKN-32" value="" style="edgeStyle=orthogonalEdgeStyle;html=1;endArrow=block;elbow=vertical;startArrow=block;startFill=1;endFill=1;strokeColor=#545B64;rounded=0;fontSize=14;" edge="1" parent="1">
          <mxGeometry width="100" relative="1" as="geometry">
            <mxPoint x="108" y="334.5" as="sourcePoint"/>
            <mxPoint x="200" y="335" as="targetPoint"/>
            <Array as="points">
              <mxPoint x="170" y="335"/>
              <mxPoint x="170" y="335"/>
            </Array>
          </mxGeometry>
        </mxCell>
        <mxCell id="LcDpXZuln2otAQhfpoKN-33" value="" style="outlineConnect=0;fontColor=#232F3E;gradientColor=none;fillColor=#277116;strokeColor=none;dashed=0;verticalLabelPosition=bottom;verticalAlign=top;align=center;html=1;fontSize=12;fontStyle=0;aspect=fixed;pointerEvents=1;shape=mxgraph.aws4.car;" vertex="1" parent="1">
          <mxGeometry x="230" y="732.5" width="64" height="64" as="geometry"/>
        </mxCell>
        <mxCell id="LcDpXZuln2otAQhfpoKN-38" value="Product ID" style="text;html=1;strokeColor=none;fillColor=none;align=center;verticalAlign=middle;whiteSpace=wrap;rounded=0;" vertex="1" parent="1">
          <mxGeometry x="301.5" y="796.5" width="40" height="20" as="geometry"/>
        </mxCell>
        <mxCell id="LcDpXZuln2otAQhfpoKN-41" value="&lt;div&gt;Raspian Edge device&lt;/div&gt;&lt;div&gt;&lt;br&gt;&lt;/div&gt;" style="text;html=1;align=center;verticalAlign=middle;resizable=0;points=[];;autosize=1;fontSize=14;" vertex="1" parent="1">
          <mxGeometry x="100" y="417" width="150" height="40" as="geometry"/>
        </mxCell>
        <mxCell id="LcDpXZuln2otAQhfpoKN-42" value="" style="outlineConnect=0;fontColor=#232F3E;gradientColor=none;fillColor=#277116;strokeColor=none;dashed=0;verticalLabelPosition=bottom;verticalAlign=top;align=center;html=1;fontSize=12;fontStyle=0;aspect=fixed;pointerEvents=1;shape=mxgraph.aws4.desired_state;" vertex="1" parent="1">
          <mxGeometry x="1260" y="457" width="78" height="78" as="geometry"/>
        </mxCell>
        <mxCell id="LcDpXZuln2otAQhfpoKN-43" value="" style="outlineConnect=0;fontColor=#232F3E;gradientColor=none;fillColor=#277116;strokeColor=none;dashed=0;verticalLabelPosition=bottom;verticalAlign=top;align=center;html=1;fontSize=12;fontStyle=0;aspect=fixed;pointerEvents=1;shape=mxgraph.aws4.generic;" vertex="1" parent="1">
          <mxGeometry x="299" y="741.5" width="45" height="45" as="geometry"/>
        </mxCell>
        <mxCell id="LcDpXZuln2otAQhfpoKN-50" value="" style="edgeStyle=orthogonalEdgeStyle;html=1;endArrow=block;elbow=vertical;startArrow=none;endFill=1;strokeColor=#545B64;rounded=0;fontSize=14;" edge="1" parent="1">
          <mxGeometry width="100" relative="1" as="geometry">
            <mxPoint x="410" y="340" as="sourcePoint"/>
            <mxPoint x="460" y="340" as="targetPoint"/>
          </mxGeometry>
        </mxCell>
        <mxCell id="LcDpXZuln2otAQhfpoKN-51" value="" style="outlineConnect=0;fontColor=#232F3E;gradientColor=#60A337;gradientDirection=north;fillColor=#277116;strokeColor=#ffffff;dashed=0;verticalLabelPosition=bottom;verticalAlign=top;align=center;html=1;fontSize=12;fontStyle=0;aspect=fixed;shape=mxgraph.aws4.resourceIcon;resIcon=mxgraph.aws4.iot_core;" vertex="1" parent="1">
          <mxGeometry x="630" y="305" width="78" height="78" as="geometry"/>
        </mxCell>
        <mxCell id="LcDpXZuln2otAQhfpoKN-52" value="" style="edgeStyle=orthogonalEdgeStyle;html=1;endArrow=block;elbow=vertical;startArrow=none;endFill=1;strokeColor=#545B64;rounded=0;fontSize=14;" edge="1" parent="1">
          <mxGeometry width="100" relative="1" as="geometry">
            <mxPoint x="540" y="340" as="sourcePoint"/>
            <mxPoint x="630" y="340" as="targetPoint"/>
          </mxGeometry>
        </mxCell>
        <mxCell id="LcDpXZuln2otAQhfpoKN-53" value="&lt;div&gt;AWS IoT Core:&lt;/div&gt;&lt;div&gt;- MQTT Broker&lt;/div&gt;&lt;div&gt;- Device Shadow&lt;/div&gt;&lt;div&gt;-&amp;nbsp; Rules Engine&lt;/div&gt;&lt;div&gt;&lt;br&gt;&lt;/div&gt;" style="text;html=1;align=center;verticalAlign=middle;resizable=0;points=[];;autosize=1;fontSize=14;" vertex="1" parent="1">
          <mxGeometry x="600" y="393" width="120" height="90" as="geometry"/>
        </mxCell>
        <mxCell id="LcDpXZuln2otAQhfpoKN-59" value="" style="outlineConnect=0;fontColor=#232F3E;gradientColor=none;fillColor=#277116;strokeColor=none;dashed=0;verticalLabelPosition=bottom;verticalAlign=top;align=center;html=1;fontSize=12;fontStyle=0;aspect=fixed;pointerEvents=1;shape=mxgraph.aws4.reported_state;" vertex="1" parent="1">
          <mxGeometry x="830" y="312" width="78" height="78" as="geometry"/>
        </mxCell>
        <mxCell id="LcDpXZuln2otAQhfpoKN-60" value="&lt;div&gt;Ãbermittelter &lt;br&gt;&lt;/div&gt;&lt;div&gt;Zustand Produkt&lt;br&gt;&lt;/div&gt;" style="text;html=1;align=center;verticalAlign=middle;resizable=0;points=[];;autosize=1;fontSize=14;" vertex="1" parent="1">
          <mxGeometry x="809" y="393" width="120" height="40" as="geometry"/>
        </mxCell>
        <mxCell id="LcDpXZuln2otAQhfpoKN-63" value="" style="outlineConnect=0;fontColor=#232F3E;gradientColor=#60A337;gradientDirection=north;fillColor=#277116;strokeColor=#ffffff;dashed=0;verticalLabelPosition=bottom;verticalAlign=top;align=center;html=1;fontSize=12;fontStyle=0;aspect=fixed;shape=mxgraph.aws4.resourceIcon;resIcon=mxgraph.aws4.iot_analytics;" vertex="1" parent="1">
          <mxGeometry x="1112.5" y="312" width="78" height="78" as="geometry"/>
        </mxCell>
        <mxCell id="LcDpXZuln2otAQhfpoKN-65" value="AWS Analytics" style="text;html=1;align=center;verticalAlign=middle;resizable=0;points=[];;autosize=1;fontSize=14;" vertex="1" parent="1">
          <mxGeometry x="1190" y="292" width="110" height="20" as="geometry"/>
        </mxCell>
        <mxCell id="LcDpXZuln2otAQhfpoKN-66" value="" style="outlineConnect=0;fontColor=#232F3E;gradientColor=#4AB29A;gradientDirection=north;fillColor=#116D5B;strokeColor=#ffffff;dashed=0;verticalLabelPosition=bottom;verticalAlign=top;align=center;html=1;fontSize=12;fontStyle=0;aspect=fixed;shape=mxgraph.aws4.resourceIcon;resIcon=mxgraph.aws4.machine_learning;" vertex="1" parent="1">
          <mxGeometry x="1240" y="167" width="78" height="78" as="geometry"/>
        </mxCell>
        <mxCell id="LcDpXZuln2otAQhfpoKN-67" value="&lt;div&gt;&lt;br&gt;&lt;/div&gt;&lt;div&gt;PrÃ¤dikiton QualitÃ¤t &lt;br&gt;&lt;/div&gt;&lt;div&gt;(Machine Learning)&lt;br&gt;&lt;/div&gt;" style="text;html=1;align=center;verticalAlign=middle;resizable=0;points=[];;autosize=1;fontSize=14;" vertex="1" parent="1">
          <mxGeometry x="1330" y="140" width="140" height="60" as="geometry"/>
        </mxCell>
        <mxCell id="LcDpXZuln2otAQhfpoKN-69" value="&lt;div&gt;GewÃ¼nschter &lt;br&gt;&lt;/div&gt;&lt;div&gt;Zustand Produkt&lt;br&gt;&lt;/div&gt;" style="text;html=1;align=center;verticalAlign=middle;resizable=0;points=[];;autosize=1;fontSize=14;" vertex="1" parent="1">
          <mxGeometry x="1247" y="540" width="120" height="40" as="geometry"/>
        </mxCell>
        <mxCell id="LcDpXZuln2otAQhfpoKN-71" value="" style="outlineConnect=0;fontColor=#232F3E;gradientColor=none;fillColor=#D05C17;strokeColor=none;dashed=0;verticalLabelPosition=bottom;verticalAlign=top;align=center;html=1;fontSize=12;fontStyle=0;aspect=fixed;pointerEvents=1;shape=mxgraph.aws4.container_1;" vertex="1" parent="1">
          <mxGeometry x="840" y="175" width="78" height="50" as="geometry"/>
        </mxCell>
        <mxCell id="LcDpXZuln2otAQhfpoKN-72" value="&lt;div&gt;Docker container fÃ¼r beliebiges &lt;br&gt;&lt;/div&gt;&lt;div&gt;End-Device&lt;/div&gt;" style="text;html=1;align=center;verticalAlign=middle;resizable=0;points=[];;autosize=1;fontSize=14;" vertex="1" parent="1">
          <mxGeometry x="630" y="185" width="210" height="40" as="geometry"/>
        </mxCell>
        <mxCell id="LcDpXZuln2otAQhfpoKN-74" value="" style="outlineConnect=0;fontColor=#232F3E;gradientColor=#F34482;gradientDirection=north;fillColor=#BC1356;strokeColor=#ffffff;dashed=0;verticalLabelPosition=bottom;verticalAlign=top;align=center;html=1;fontSize=12;fontStyle=0;aspect=fixed;shape=mxgraph.aws4.resourceIcon;resIcon=mxgraph.aws4.application_integration;" vertex="1" parent="1">
          <mxGeometry x="849" y="250" width="40" height="40" as="geometry"/>
        </mxCell>
        <mxCell id="LcDpXZuln2otAQhfpoKN-75" value="" style="outlineConnect=0;fontColor=#232F3E;gradientColor=#F34482;gradientDirection=north;fillColor=#BC1356;strokeColor=#ffffff;dashed=0;verticalLabelPosition=bottom;verticalAlign=top;align=center;html=1;fontSize=12;fontStyle=0;aspect=fixed;shape=mxgraph.aws4.resourceIcon;resIcon=mxgraph.aws4.sns;" vertex="1" parent="1">
          <mxGeometry x="1016" y="168" width="64" height="64" as="geometry"/>
        </mxCell>
        <mxCell id="LcDpXZuln2otAQhfpoKN-76" value="" style="edgeStyle=orthogonalEdgeStyle;html=1;endArrow=block;elbow=vertical;startArrow=none;endFill=1;strokeColor=#545B64;rounded=0;fontSize=14;" edge="1" parent="1" source="LcDpXZuln2otAQhfpoKN-63" target="LcDpXZuln2otAQhfpoKN-74">
          <mxGeometry width="100" relative="1" as="geometry">
            <mxPoint x="960" y="400" as="sourcePoint"/>
            <mxPoint x="1010" y="400" as="targetPoint"/>
            <Array as="points">
              <mxPoint x="1152" y="270"/>
            </Array>
          </mxGeometry>
        </mxCell>
        <mxCell id="LcDpXZuln2otAQhfpoKN-77" value="" style="edgeStyle=orthogonalEdgeStyle;html=1;endArrow=block;elbow=vertical;startArrow=none;endFill=1;strokeColor=#545B64;rounded=0;fontSize=14;" edge="1" parent="1" source="LcDpXZuln2otAQhfpoKN-74" target="LcDpXZuln2otAQhfpoKN-71">
          <mxGeometry width="100" relative="1" as="geometry">
            <mxPoint x="874" y="250" as="sourcePoint"/>
            <mxPoint x="974" y="250" as="targetPoint"/>
          </mxGeometry>
        </mxCell>
        <mxCell id="LcDpXZuln2otAQhfpoKN-78" value="&lt;div&gt;Application &lt;br&gt;&lt;/div&gt;&lt;div&gt;Integration&lt;/div&gt;&lt;div&gt;&lt;br&gt;&lt;/div&gt;" style="text;html=1;align=center;verticalAlign=middle;resizable=0;points=[];;autosize=1;fontSize=14;" vertex="1" parent="1">
          <mxGeometry x="760" y="245" width="80" height="60" as="geometry"/>
        </mxCell>
        <mxCell id="LcDpXZuln2otAQhfpoKN-79" value="" style="edgeStyle=orthogonalEdgeStyle;html=1;endArrow=block;elbow=vertical;startArrow=none;endFill=1;strokeColor=#545B64;rounded=0;fontSize=14;" edge="1" parent="1" source="LcDpXZuln2otAQhfpoKN-71" target="LcDpXZuln2otAQhfpoKN-75">
          <mxGeometry width="100" relative="1" as="geometry">
            <mxPoint x="950" y="240" as="sourcePoint"/>
            <mxPoint x="990" y="190" as="targetPoint"/>
          </mxGeometry>
        </mxCell>
        <mxCell id="LcDpXZuln2otAQhfpoKN-80" value="&lt;div&gt;QualitÃ¤ts-Alarm&lt;/div&gt;&lt;div&gt;Notifkationen&lt;/div&gt;&lt;div&gt;&lt;br&gt;&lt;/div&gt;&lt;div&gt;&lt;br&gt;&lt;/div&gt;" style="text;html=1;align=center;verticalAlign=middle;resizable=0;points=[];;autosize=1;fontSize=14;" vertex="1" parent="1">
          <mxGeometry x="1028" y="130" width="110" height="70" as="geometry"/>
        </mxCell>
        <mxCell id="LcDpXZuln2otAQhfpoKN-83" value="" style="outlineConnect=0;fontColor=#232F3E;gradientColor=#4D72F3;gradientDirection=north;fillColor=#3334B9;strokeColor=#ffffff;dashed=0;verticalLabelPosition=bottom;verticalAlign=top;align=center;html=1;fontSize=12;fontStyle=0;aspect=fixed;shape=mxgraph.aws4.resourceIcon;resIcon=mxgraph.aws4.database;" vertex="1" parent="1">
          <mxGeometry x="1370" y="292" width="78" height="78" as="geometry"/>
        </mxCell>
        <mxCell id="LcDpXZuln2otAQhfpoKN-85" value="Amazon S3" style="text;html=1;align=center;verticalAlign=middle;resizable=0;points=[];;autosize=1;fontSize=14;" vertex="1" parent="1">
          <mxGeometry x="1367" y="378.5" width="90" height="20" as="geometry"/>
        </mxCell>
        <mxCell id="LcDpXZuln2otAQhfpoKN-91" value="" style="edgeStyle=orthogonalEdgeStyle;html=1;endArrow=block;elbow=vertical;startArrow=none;endFill=1;strokeColor=#545B64;rounded=0;fontSize=14;" edge="1" parent="1" source="LcDpXZuln2otAQhfpoKN-51" target="LcDpXZuln2otAQhfpoKN-59">
          <mxGeometry width="100" relative="1" as="geometry">
            <mxPoint x="720" y="350" as="sourcePoint"/>
            <mxPoint x="820" y="350" as="targetPoint"/>
            <Array as="points">
              <mxPoint x="780" y="344"/>
              <mxPoint x="780" y="344"/>
            </Array>
          </mxGeometry>
        </mxCell>
        <mxCell id="LcDpXZuln2otAQhfpoKN-94" value="" style="edgeStyle=orthogonalEdgeStyle;html=1;endArrow=block;elbow=vertical;startArrow=none;endFill=1;strokeColor=#545B64;rounded=0;fontSize=14;" edge="1" parent="1" source="LcDpXZuln2otAQhfpoKN-59" target="LcDpXZuln2otAQhfpoKN-63">
          <mxGeometry width="100" relative="1" as="geometry">
            <mxPoint x="940" y="350" as="sourcePoint"/>
            <mxPoint x="1040" y="350" as="targetPoint"/>
          </mxGeometry>
        </mxCell>
        <mxCell id="LcDpXZuln2otAQhfpoKN-97" value="" style="edgeStyle=orthogonalEdgeStyle;html=1;endArrow=block;elbow=vertical;startArrow=none;endFill=1;strokeColor=#545B64;rounded=0;fontSize=14;" edge="1" parent="1" source="LcDpXZuln2otAQhfpoKN-6" target="LcDpXZuln2otAQhfpoKN-19">
          <mxGeometry width="100" relative="1" as="geometry">
            <mxPoint x="280" y="340" as="sourcePoint"/>
            <mxPoint x="360" y="470" as="targetPoint"/>
          </mxGeometry>
        </mxCell>
        <mxCell id="LcDpXZuln2otAQhfpoKN-98" value="" style="outlineConnect=0;fontColor=#232F3E;gradientColor=none;fillColor=#277116;strokeColor=none;dashed=0;verticalLabelPosition=bottom;verticalAlign=top;align=center;html=1;fontSize=12;fontStyle=0;aspect=fixed;pointerEvents=1;shape=mxgraph.aws4.data_set;" vertex="1" parent="1">
          <mxGeometry x="52.49999999999999" y="522" width="37.15" height="46" as="geometry"/>
        </mxCell>
        <mxCell id="LcDpXZuln2otAQhfpoKN-99" value="" style="outlineConnect=0;fontColor=#232F3E;gradientColor=none;fillColor=#277116;strokeColor=none;dashed=0;verticalLabelPosition=bottom;verticalAlign=top;align=center;html=1;fontSize=12;fontStyle=0;aspect=fixed;pointerEvents=1;shape=mxgraph.aws4.connector;direction=west;" vertex="1" parent="1">
          <mxGeometry x="175.5" y="522" width="78" height="29" as="geometry"/>
        </mxCell>
        <mxCell id="LcDpXZuln2otAQhfpoKN-107" value="" style="fillColor=none;strokeColor=#5A6C86;dashed=1;verticalAlign=top;fontStyle=0;fontColor=#5A6C86;" vertex="1" parent="1">
          <mxGeometry x="219" y="720" width="141" height="130" as="geometry"/>
        </mxCell>
        <mxCell id="LcDpXZuln2otAQhfpoKN-108" value="" style="edgeStyle=orthogonalEdgeStyle;html=1;endArrow=block;elbow=vertical;startArrow=none;endFill=1;strokeColor=#545B64;rounded=0;fontSize=14;" edge="1" parent="1" source="LcDpXZuln2otAQhfpoKN-107" target="LcDpXZuln2otAQhfpoKN-18">
          <mxGeometry width="100" relative="1" as="geometry">
            <mxPoint x="289.5" y="620" as="sourcePoint"/>
            <mxPoint x="289.5" y="620" as="targetPoint"/>
            <Array as="points">
              <mxPoint x="290" y="670"/>
              <mxPoint x="290" y="670"/>
            </Array>
          </mxGeometry>
        </mxCell>
        <mxCell id="LcDpXZuln2otAQhfpoKN-111" value="" style="edgeStyle=orthogonalEdgeStyle;html=1;endArrow=none;elbow=vertical;startArrow=block;startFill=1;strokeColor=#545B64;rounded=0;fontSize=14;" edge="1" parent="1" source="LcDpXZuln2otAQhfpoKN-99" target="LcDpXZuln2otAQhfpoKN-18">
          <mxGeometry width="100" relative="1" as="geometry">
            <mxPoint x="220" y="580" as="sourcePoint"/>
            <mxPoint x="320" y="580" as="targetPoint"/>
          </mxGeometry>
        </mxCell>
        <mxCell id="LcDpXZuln2otAQhfpoKN-112" value="&lt;div&gt;Greengrass-Conncetor&lt;/div&gt;&lt;div&gt;&lt;br&gt;&lt;/div&gt;" style="text;html=1;align=center;verticalAlign=middle;resizable=0;points=[];;autosize=1;fontSize=14;" vertex="1" parent="1">
          <mxGeometry x="160" y="482" width="160" height="40" as="geometry"/>
        </mxCell>
        <mxCell id="LcDpXZuln2otAQhfpoKN-114" value="" style="edgeStyle=orthogonalEdgeStyle;html=1;endArrow=none;elbow=vertical;startArrow=block;startFill=1;strokeColor=#545B64;rounded=0;fontSize=14;" edge="1" parent="1" source="LcDpXZuln2otAQhfpoKN-98" target="LcDpXZuln2otAQhfpoKN-99">
          <mxGeometry width="100" relative="1" as="geometry">
            <mxPoint x="70" y="540" as="sourcePoint"/>
            <mxPoint x="170" y="540" as="targetPoint"/>
            <Array as="points">
              <mxPoint x="100" y="536"/>
              <mxPoint x="100" y="536"/>
            </Array>
          </mxGeometry>
        </mxCell>
        <mxCell id="LcDpXZuln2otAQhfpoKN-116" value="" style="edgeStyle=orthogonalEdgeStyle;html=1;endArrow=block;elbow=vertical;startArrow=none;endFill=1;strokeColor=#545B64;rounded=0;fontSize=14;" edge="1" parent="1" source="LcDpXZuln2otAQhfpoKN-98" target="LcDpXZuln2otAQhfpoKN-20">
          <mxGeometry width="100" relative="1" as="geometry">
            <mxPoint x="90" y="510" as="sourcePoint"/>
            <mxPoint x="190" y="510" as="targetPoint"/>
          </mxGeometry>
        </mxCell>
        <mxCell id="LcDpXZuln2otAQhfpoKN-117" value="Data Set" style="text;html=1;align=center;verticalAlign=middle;resizable=0;points=[];;autosize=1;fontSize=14;" vertex="1" parent="1">
          <mxGeometry x="90" y="568" width="70" height="20" as="geometry"/>
        </mxCell>
        <mxCell id="LcDpXZuln2otAQhfpoKN-118" value="" style="edgeStyle=orthogonalEdgeStyle;html=1;endArrow=block;elbow=vertical;startArrow=none;endFill=1;strokeColor=#545B64;rounded=0;fontSize=14;" edge="1" parent="1" source="LcDpXZuln2otAQhfpoKN-63" target="LcDpXZuln2otAQhfpoKN-83">
          <mxGeometry width="100" relative="1" as="geometry">
            <mxPoint x="1190.5" y="351" as="sourcePoint"/>
            <mxPoint x="1290.5" y="351" as="targetPoint"/>
            <Array as="points">
              <mxPoint x="1230" y="370"/>
              <mxPoint x="1230" y="331"/>
            </Array>
          </mxGeometry>
        </mxCell>
        <mxCell id="LcDpXZuln2otAQhfpoKN-119" value="" style="outlineConnect=0;fontColor=#232F3E;gradientColor=none;fillColor=#116D5B;strokeColor=none;dashed=0;verticalLabelPosition=bottom;verticalAlign=top;align=center;html=1;fontSize=12;fontStyle=0;aspect=fixed;pointerEvents=1;shape=mxgraph.aws4.sagemaker_train;" vertex="1" parent="1">
          <mxGeometry x="1388" y="210" width="48" height="40" as="geometry"/>
        </mxCell>
        <mxCell id="LcDpXZuln2otAQhfpoKN-120" value="" style="outlineConnect=0;fontColor=#232F3E;gradientColor=#F34482;gradientDirection=north;fillColor=#BC1356;strokeColor=#ffffff;dashed=0;verticalLabelPosition=bottom;verticalAlign=top;align=center;html=1;fontSize=12;fontStyle=0;aspect=fixed;shape=mxgraph.aws4.resourceIcon;resIcon=mxgraph.aws4.opsworks;" vertex="1" parent="1">
          <mxGeometry x="1410" y="457" width="78" height="78" as="geometry"/>
        </mxCell>
        <mxCell id="LcDpXZuln2otAQhfpoKN-122" value="&lt;div&gt;Product&lt;/div&gt;&lt;div&gt;Engineering&lt;/div&gt;&lt;div&gt;&lt;br&gt;&lt;/div&gt;" style="text;html=1;align=center;verticalAlign=middle;resizable=0;points=[];;autosize=1;fontSize=14;" vertex="1" parent="1">
          <mxGeometry x="1410" y="540" width="90" height="60" as="geometry"/>
        </mxCell>
        <mxCell id="LcDpXZuln2otAQhfpoKN-128" value="" style="edgeStyle=orthogonalEdgeStyle;html=1;endArrow=block;elbow=vertical;startArrow=block;startFill=1;endFill=1;strokeColor=#545B64;rounded=0;fontSize=14;" edge="1" parent="1" source="LcDpXZuln2otAQhfpoKN-63" target="LcDpXZuln2otAQhfpoKN-66">
          <mxGeometry width="100" relative="1" as="geometry">
            <mxPoint x="1170" y="270" as="sourcePoint"/>
            <mxPoint x="1270" y="270" as="targetPoint"/>
            <Array as="points">
              <mxPoint x="1180" y="206"/>
            </Array>
          </mxGeometry>
        </mxCell>
        <mxCell id="LcDpXZuln2otAQhfpoKN-131" value="" style="edgeStyle=orthogonalEdgeStyle;html=1;endArrow=none;elbow=vertical;startArrow=block;startFill=1;strokeColor=#545B64;rounded=0;fontSize=14;" edge="1" parent="1" source="LcDpXZuln2otAQhfpoKN-66" target="LcDpXZuln2otAQhfpoKN-119">
          <mxGeometry width="100" relative="1" as="geometry">
            <mxPoint x="1260" y="260" as="sourcePoint"/>
            <mxPoint x="1360" y="260" as="targetPoint"/>
          </mxGeometry>
        </mxCell>
        <mxCell id="LcDpXZuln2otAQhfpoKN-133" value="" style="edgeStyle=orthogonalEdgeStyle;html=1;endArrow=none;elbow=vertical;startArrow=block;startFill=1;strokeColor=#545B64;rounded=0;fontSize=14;" edge="1" parent="1" source="LcDpXZuln2otAQhfpoKN-119" target="LcDpXZuln2otAQhfpoKN-83">
          <mxGeometry width="100" relative="1" as="geometry">
            <mxPoint x="1330" y="270" as="sourcePoint"/>
            <mxPoint x="1430" y="270" as="targetPoint"/>
          </mxGeometry>
        </mxCell>
        <mxCell id="LcDpXZuln2otAQhfpoKN-134" value="" style="edgeStyle=orthogonalEdgeStyle;html=1;endArrow=none;elbow=vertical;startArrow=block;startFill=1;strokeColor=#545B64;rounded=0;fontSize=14;" edge="1" parent="1" source="LcDpXZuln2otAQhfpoKN-42" target="LcDpXZuln2otAQhfpoKN-120">
          <mxGeometry width="100" relative="1" as="geometry">
            <mxPoint x="1340" y="490" as="sourcePoint"/>
            <mxPoint x="1440" y="490" as="targetPoint"/>
          </mxGeometry>
        </mxCell>
        <mxCell id="LcDpXZuln2otAQhfpoKN-135" value="" style="edgeStyle=orthogonalEdgeStyle;html=1;endArrow=none;elbow=vertical;startArrow=block;startFill=1;strokeColor=#545B64;rounded=0;fontSize=14;" edge="1" parent="1" source="LcDpXZuln2otAQhfpoKN-63" target="LcDpXZuln2otAQhfpoKN-42">
          <mxGeometry width="100" relative="1" as="geometry">
            <mxPoint x="1160" y="500" as="sourcePoint"/>
            <mxPoint x="1240" y="500" as="targetPoint"/>
            <Array as="points">
              <mxPoint x="1152" y="500"/>
            </Array>
          </mxGeometry>
        </mxCell>
        <mxCell id="LcDpXZuln2otAQhfpoKN-139" value="" style="group" vertex="1" connectable="0" parent="1">
          <mxGeometry x="1138" y="588" width="220" height="297" as="geometry"/>
        </mxCell>
        <mxCell id="LcDpXZuln2otAQhfpoKN-138" value="&lt;font style=&quot;font-size: 14px&quot;&gt;Prozessteuerung-Roboter&lt;/font&gt;" style="points=[[0,0],[0.25,0],[0.5,0],[0.75,0],[1,0],[1,0.25],[1,0.5],[1,0.75],[1,1],[0.75,1],[0.5,1],[0.25,1],[0,1],[0,0.75],[0,0.5],[0,0.25]];outlineConnect=0;gradientColor=none;html=1;whiteSpace=wrap;fontSize=12;fontStyle=0;shape=mxgraph.aws4.group;grIcon=mxgraph.aws4.group_corporate_data_center;strokeColor=#5A6C86;fillColor=none;verticalAlign=top;align=left;spacingLeft=30;fontColor=#5A6C86;dashed=0;" vertex="1" parent="LcDpXZuln2otAQhfpoKN-139">
          <mxGeometry width="220" height="297" as="geometry"/>
        </mxCell>
        <mxCell id="LcDpXZuln2otAQhfpoKN-73" value="" style="outlineConnect=0;fontColor=#232F3E;gradientColor=#F34482;gradientDirection=north;fillColor=#BC1356;strokeColor=#ffffff;dashed=0;verticalLabelPosition=bottom;verticalAlign=top;align=center;html=1;fontSize=12;fontStyle=0;aspect=fixed;shape=mxgraph.aws4.resourceIcon;resIcon=mxgraph.aws4.config;" vertex="1" parent="LcDpXZuln2otAQhfpoKN-139">
          <mxGeometry x="15" y="116" width="65" height="65" as="geometry"/>
        </mxCell>
        <mxCell id="LcDpXZuln2otAQhfpoKN-123" value="" style="outlineConnect=0;fontColor=#232F3E;gradientColor=#4AB29A;gradientDirection=north;fillColor=#116D5B;strokeColor=#ffffff;dashed=0;verticalLabelPosition=bottom;verticalAlign=top;align=center;html=1;fontSize=12;fontStyle=0;aspect=fixed;shape=mxgraph.aws4.resourceIcon;resIcon=mxgraph.aws4.deep_learning_amis;" vertex="1" parent="LcDpXZuln2otAQhfpoKN-139">
          <mxGeometry x="12" y="30" width="68" height="68" as="geometry"/>
        </mxCell>
        <mxCell id="LcDpXZuln2otAQhfpoKN-125" value="&lt;div&gt;Adaptions-&lt;/div&gt;&lt;div&gt;Algorithmus fÃ¼r&lt;/div&gt;&lt;div&gt; Roboter R1..Rn&lt;br&gt;&lt;/div&gt;" style="text;html=1;align=center;verticalAlign=middle;resizable=0;points=[];;autosize=1;fontSize=14;" vertex="1" parent="LcDpXZuln2otAQhfpoKN-139">
          <mxGeometry x="8.5" y="188" width="110" height="60" as="geometry"/>
        </mxCell>
        <mxCell id="LcDpXZuln2otAQhfpoKN-126" value="&lt;div&gt;Adaptions-&lt;/div&gt;&lt;div&gt;Algorithmus&lt;/div&gt;&lt;div&gt; (Machine Learning)&lt;br&gt;&lt;/div&gt;" style="text;html=1;align=center;verticalAlign=middle;resizable=0;points=[];;autosize=1;fontSize=14;" vertex="1" parent="LcDpXZuln2otAQhfpoKN-139">
          <mxGeometry x="80" y="33" width="140" height="60" as="geometry"/>
        </mxCell>
        <mxCell id="LcDpXZuln2otAQhfpoKN-140" value="" style="outlineConnect=0;fontColor=#232F3E;gradientColor=none;fillColor=#277116;strokeColor=none;dashed=0;verticalLabelPosition=bottom;verticalAlign=top;align=center;html=1;fontSize=12;fontStyle=0;aspect=fixed;pointerEvents=1;shape=mxgraph.aws4.lambda_function;" vertex="1" parent="LcDpXZuln2otAQhfpoKN-139">
          <mxGeometry x="130" y="116" width="78" height="78" as="geometry"/>
        </mxCell>
        <mxCell id="LcDpXZuln2otAQhfpoKN-143" value="" style="shape=image;imageAspect=0;aspect=fixed;verticalLabelPosition=bottom;verticalAlign=top;fontSize=14;image=data:image/jpeg,/9j/4AAQSkZJRgABAQEAYABgAAD/2wBDAAIBAQIBAQICAgICAgICAwUDAwMDAwYEBAMFBwYHBwcGBwcICQsJCAgKCAcHCg0KCgsMDAwMBwkODw0MDgsMDAz/2wBDAQICAgMDAwYDAwYMCAcIDAwMDAwMDAwMDAwMDAwMDAwMDAwMDAwMDAwMDAwMDAwMDAwMDAwMDAwMDAwMDAwMDAz/wAARCAA9AEADASIAAhEBAxEB/8QAHwAAAQUBAQEBAQEAAAAAAAAAAAECAwQFBgcICQoL/8QAtRAAAgEDAwIEAwUFBAQAAAF9AQIDAAQRBRIhMUEGE1FhByJxFDKBkaEII0KxwRVS0fAkM2JyggkKFhcYGRolJicoKSo0NTY3ODk6Q0RFRkdISUpTVFVWV1hZWmNkZWZnaGlqc3R1dnd4eXqDhIWGh4iJipKTlJWWl5iZmqKjpKWmp6ipqrKztLW2t7i5usLDxMXGx8jJytLT1NXW19jZ2uHi4+Tl5ufo6erx8vP09fb3+Pn6/8QAHwEAAwEBAQEBAQEBAQAAAAAAAAECAwQFBgcICQoL/8QAtREAAgECBAQDBAcFBAQAAQJ3AAECAxEEBSExBhJBUQdhcRMiMoEIFEKRobHBCSMzUvAVYnLRChYkNOEl8RcYGRomJygpKjU2Nzg5OkNERUZHSElKU1RVVldYWVpjZGVmZ2hpanN0dXZ3eHl6goOEhYaHiImKkpOUlZaXmJmaoqOkpaanqKmqsrO0tba3uLm6wsPExcbHyMnK0tPU1dbX2Nna4uPk5ebn6Onq8vP09fb3+Pn6/9oADAMBAAIRAxEAPwD9/KKKa8gjGWIUZAyTjknA/WgG7asdRRWfrPi3SvDs0ceoanp9jJN/q1uLhIi/0DEZoA0KKRWDqCOQeQR3paACvDf+Ck3/ACZJ47/64W3/AKVwV7lXhv8AwUm/5Mk8d/8AXC2/9K4KqHxIzrfw5ejPcqKKKk0KHijVpNB8M6jfRQtcy2drLOkK9ZWVCwUfXGPxryr4D/A7wv4z+GGm+JPEOnaV4u13xXaR6jqGo6hbpdNI0q7/AC494IjjTOxUXAAX15r2Q815H8PdKHwU+PNx4RtJZ08L+JNOk1fSbSRt0en3Uc3+kwxHqqMJY5AnIB34wOKAKQ8G6r8FtQn0zwf488NWemB/Ot/D/iFDMLAP1SKVZVlWPPKqQQMnHHFcn8TP26Na+Cepf2T4g8OaDfanLafboLrS9ZL2TQiTy2L5j8xG3EbVCtnPUYNdHo3ww8NWv7SHivRPEvh/RdZPipV8RaVd6hZR3ErBVSC5tw7gnEZWNlUdFlrkP20v2ffCfhXwVot/pehaXoFn/awTUrjTbWGC4aN4ZBHGHdTGsbSiNW3qVAbOM0Ae0/s+fG23+Pnw7j12CzksJFma2ngZ/MCOArZV8DcjK6sDgHDcgGuF/wCCk3/Jknjv/rhbf+lcFeZ/sW2l54J+L2mQ2Wialb6b4m0c31zNHPc31nJFKkdxbXLzyAKJcmWFlAHIXAxivTP+Ck3/ACZJ47/64W3/AKVwVUPiRnW/hy9Ge5UUUVJoFeXftP8A/FMaX4a8Zpw3g3WYbm5fOMWc2be4/AJKHP8A1zr1GvMv2m/F01n4csfDFkth9u8XvNatNfwCe2srSOJpbmd4zxJtjBwh4LMueM0AcR+0t8f/AASNJsPEGj+KdGufEHge+GowJDPuW6iwUubbzB8uXiZwBn7ypXtj2+i/FPwXCZ7ay1nRNXgiuFjuIlmhuI22yISrAg/wkfQV8s+H/wBnzU/E3w5j8Rab4WgvdHkt/PsoL/Xr2HXL62xlZEMRFtA7rhkiEZUZAJ9PT/2P/jA3jGPUPD0d1e6zpej21vPpepz2DW0n2dwR9lnG1U+0Qldp2cMCD1BoA9sggS1gSOJFjjjAVUUYVQOgArxD/gpN/wAmSeO/+uFt/wClcFe5V4b/AMFJv+TJPHf/AFwtv/SuCqh8SM638OXoz3KivDf+Hbvwa/6FS7/8H+pf/JFH/Dt34Nf9Cpd/+D/Uv/kijQL1Oy+//gHuVcj8UfgZ4a+M0unt4hsprwaZ5ohWO6lgBWVQrq3lspZSAMgnHFed/wDDt34Nf9Cpd/8Ag/1L/wCSKP8Ah278Gv8AoVLv/wAH+pf/ACRRoF6nZff/AMA9q0nSrfQtKtrK0iS3tLOJYIIkHyxooCqo9gABU6rtGAMD2rw7/h278Gv+hUu//B/qX/yRR/w7d+DX/QqXf/g/1L/5Io0C9Tsvv/4B7lXhv/BSb/kyTx3/ANcLb/0rgo/4du/Br/oVLv8A8H+pf/JFOg/4JxfBqCZH/wCERmfYwbbLreoSI2OzK05Vh6ggg9xQrJ3JmqkouNlr5/8AAP/Z;" vertex="1" parent="1">
          <mxGeometry x="580" y="754.5" width="64" height="61" as="geometry"/>
        </mxCell>
      </root>
    </mxGraphModel>
  </diagram>
</mxfile>
